<svg xmlns="http://www.w3.org/2000/svg" version="1.1" width="1024" height="1024" class="injected-svg" data-src="https://storage.googleapis.com/illustroke-c1d67.appspot.com/IpqcWBfhhpdtdS6pDf2SP9EpP7A3/9d59a2dwloniek2jjdb3e-2.svg" xmlns:xlink="http://www.w3.org/1999/xlink" viewBox="0 0 512 512">
<path d="M0 0 C168.96 0 337.92 0 512 0 C512 168.96 512 337.92 512 512 C343.04 512 174.08 512 0 512 C0 343.04 0 174.08 0 0 Z " fill="#FCFCF7" transform="translate(0,0)"/>
<path d="M0 0 C3.76292832 1.79479939 7.66981196 2.96872995 11.63671875 4.23046875 C15.44467099 5.53292761 19.01615099 7.19490163 22.65625 8.90234375 C33.63026622 13.8918439 45.05334136 17.9786905 56.30859375 22.27734375 C60.54447645 23.92683078 64.59614356 25.7153557 68.62890625 27.81640625 C71.81702165 29.45488042 74.78879851 30.6624651 78.25390625 31.56640625 C103.17978777 38.57069635 124.20478145 56.57978431 133.5859375 80.625 C135.31009884 84.97091978 136.44289517 87.41951508 140.37890625 90.06640625 C153.41698132 99.52724773 158.99550719 113.21550651 158.94458008 128.89916992 C158.94144206 130.91836683 158.96482712 132.93606432 158.99023438 134.95507812 C158.99546157 145.48788456 157.85906637 153.78875386 151.75390625 162.56640625 C151.09648437 163.53191406 150.4390625 164.49742187 149.76171875 165.4921875 C146.79742425 169.33056884 143.89768322 172.46005399 139.76953125 175.04296875 C131.46677171 180.31634305 130.74090874 184.64673508 130.75878906 193.82202148 C130.77608343 208.68508741 120.59095448 241.59145645 102.81640625 243.56640625 C97.62923536 242.82538184 99.23214108 236.71536799 99.0078125 232.453125 C98.14432065 225.16240518 95.83255261 224.6897447 88.859375 224.96875 C88.07449707 224.98265778 87.28961914 224.99656555 86.48095703 225.01089478 C84.79788969 225.04080151 83.11494948 225.07871941 81.43222046 225.12380981 C37.49520813 226.25920598 37.49520813 226.25920598 36.27734375 219.22265625 C36.80249372 214.7880565 39.00318296 211.55475415 41.25390625 207.75390625 C45.48171872 200.40660107 49.24717205 193.03464429 52.62890625 185.25390625 C51.33146484 185.68703125 51.33146484 185.68703125 50.0078125 186.12890625 C41.12849363 188.74635132 32.89561376 189.63979625 23.62890625 189.62890625 C22.56744385 189.63019531 21.50598145 189.63148438 20.41235352 189.6328125 C-3.10711063 189.30638511 -28.34542467 169.07498848 -29.56640625 144.2890625 C-29.54320312 142.97808594 -29.52 141.66710937 -29.49609375 140.31640625 C-29.48707031 139.63255859 -29.47804687 138.94871094 -29.46875 138.24414062 C-29.44548333 136.58057338 -29.40962542 134.91718994 -29.37109375 133.25390625 C-30.04914063 133.5684375 -30.7271875 133.88296875 -31.42578125 134.20703125 C-36.87887104 136.71454622 -42.34862517 139.10840763 -47.9375 141.296875 C-49.4932781 141.90869785 -51.04350219 142.53496586 -52.5859375 143.1796875 C-58.99114996 145.84031421 -65.53046657 148.01721371 -72.12695312 150.14794922 C-72.87525391 150.39174316 -73.62355469 150.63553711 -74.39453125 150.88671875 C-75.06403809 151.10215332 -75.73354492 151.31758789 -76.42333984 151.53955078 C-78.42964897 152.22646463 -78.42964897 152.22646463 -80.43212891 153.33935547 C-82.37109375 154.25390625 -82.37109375 154.25390625 -85.37109375 154.25390625 C-86.60629381 145.85800094 -84.24797289 144.8193093 -76.43359375 143.00390625 C-74.75636649 142.56670814 -73.08056512 142.12400257 -71.40625 141.67578125 C-70.56167236 141.45253174 -69.71709473 141.22928223 -68.84692383 140.99926758 C-65.68435126 140.04715891 -62.78296126 138.73401351 -59.79321289 137.34228516 C-54.97835283 135.17872844 -50.00377543 133.40682641 -45.05859375 131.56640625 C-43.98802734 131.16357422 -42.91746094 130.76074219 -41.81445312 130.34570312 C-33.75247804 127.33192784 -33.75247804 127.33192784 -31.09765625 126.78881836 C-28.13440003 125.87076203 -28.32365173 123.3350622 -27.68359375 120.50390625 C-19.41465325 91.16042868 13.36227644 76.1776367 42.0703125 81.9453125 C65.07587808 88.43684754 84.57265984 106.43211554 85.62890625 131.25390625 C87.60890625 131.25390625 89.58890625 131.25390625 91.62890625 131.25390625 C91.57476562 130.08730469 91.520625 128.92070312 91.46484375 127.71875 C91.48908686 109.35459145 107.30794727 92.17427276 122.62890625 84.25390625 C123.61890625 84.25390625 124.60890625 84.25390625 125.62890625 84.25390625 C118.59300408 60.32258112 98.77534389 47.60212668 76.515625 39.6875 C71.76072324 37.97817558 67.23460329 35.83132164 62.66796875 33.67578125 C52.08629456 28.72497225 41.0961031 24.67322653 30.21484375 20.4375 C14.92059632 14.46875462 14.92059632 14.46875462 9.56640625 11.87890625 C4.84246984 9.69450445 0.04354519 7.9452028 -4.87109375 6.25390625 C-9.92969616 4.49314936 -14.97895217 2.73080065 -19.93359375 0.69140625 C-20.80113281 0.33949219 -21.66867188 -0.01242188 -22.5625 -0.375 C-25.13225752 -2.32313151 -24.80400507 -3.67590659 -24.37109375 -6.74609375 C-20.10713486 -11.01005264 -4.40956534 -2.31174396 0 0 Z " fill="#2D0C1D" transform="translate(227.37109375,120.74609375)"/>
<path d="M0 0 C4.96217137 2.28040964 9.93701073 4.36033133 15.0625 6.25 C21.03834727 8.5111314 26.68370243 11.2231605 32.35571289 14.14550781 C36.50928736 16.28389803 40.69276376 18.18963861 45 20 C46.52185305 20.70613981 48.04284258 21.41414736 49.5625 22.125 C56.56387177 25.15421304 66.80041721 26.39916558 71 18 C75.60021232 18.93881884 79.28234989 20.62430023 83.44921875 22.80078125 C86.80931434 24.38048928 90.26840521 25.65658581 93.75 26.9375 C110.51935292 33.11783209 110.51935292 33.11783209 117.75 36.9375 C121.53698149 38.90140982 125.4954241 40.30478967 129.5 41.75 C148.77253122 48.82435472 180 63.88754374 180 88 C178.234375 89.09765625 178.234375 89.09765625 175.75 90.0625 C158.71775338 97.94959148 147.09468264 116.39039513 146 135 C140.44682519 136.20721192 140.44682519 136.20721192 139.33203125 133.1953125 C139.05214535 131.46057415 138.78812704 129.72324217 138.53515625 127.984375 C136.76588449 118.11777921 131.71444405 110.24553002 125 103 C124.42894531 102.37480469 123.85789062 101.74960938 123.26953125 101.10546875 C119.05122525 96.98028209 114.21622796 94.33760294 109 91.6875 C108.33548828 91.34960449 107.67097656 91.01170898 106.98632812 90.66357422 C77.87772261 76.53144642 43.21631143 91.425258 29 119 C28.09893574 122.13808199 28.09893574 122.13808199 27.5625 125.125 C26.01095163 131.81910176 22.16252091 132.24444012 16 134 C12.8796579 135.10252568 9.78594104 136.2750887 6.6875 137.4375 C5.0238068 138.04788252 3.3597474 138.65726791 1.6953125 139.265625 C-2.19942155 140.69698283 -6.07204944 142.17857713 -9.9375 143.6875 C-26.26221026 150 -26.26221026 150 -31 150 C-31 152.64 -31 155.28 -31 158 C-30.20078125 157.68546875 -29.4015625 157.3709375 -28.578125 157.046875 C-23.02613956 154.88342527 -17.47780488 152.78664372 -11.8125 150.9375 C-7.34666076 149.47616517 -2.9936627 147.85621412 1.3515625 146.0703125 C5.54154779 144.37701461 9.78339061 142.81981226 14.01953125 141.24609375 C17.0274448 140.0776432 17.0274448 140.0776432 19.69921875 138.34765625 C22 137 22 137 25 137 C25.05607422 138.46759766 25.05607422 138.46759766 25.11328125 139.96484375 C26.95814902 176.75367754 53.70278615 193.20433064 87.99316406 192.20996094 C93.13929095 191.85061788 97.67982338 190.56214945 102.5234375 188.77734375 C105 188 105 188 108 189 C106.46508435 191.42355103 105.54642766 192.79704116 102.8125 193.8125 C95.27037309 196.99695358 90.97714293 203.02887457 87.2265625 210.05859375 C86 212 86 212 84 212 C83.855625 212.804375 83.71125 213.60875 83.5625 214.4375 C83 217 83 217 80 218 C79.63557767 219.66014616 79.30027117 221.32706064 79 223 C78.34 223 77.68 223 77 223 C76.835 223.66 76.67 224.32 76.5 225 C76 227 76 227 74 227 C73.71827518 228.49436646 73.47646583 229.9962669 73.25 231.5 C73.04117188 232.75296875 73.04117188 232.75296875 72.828125 234.03125 C73.00454593 237.07852055 73.51044808 238.17486451 74.95703125 240.765625 C77.39935794 245.30948862 77.58086766 249.16277727 77.4375 254.25 C77.42356201 255.08120361 77.40962402 255.91240723 77.39526367 256.76879883 C77.0858285 267.1575554 75.06669099 275.47383968 69 284 C60.61880391 280.28119114 54.94609789 271.65290142 49.36474609 264.68554688 C47.83958041 262.80187177 46.29104695 260.93911087 44.73828125 259.078125 C38.36418439 251.42885357 32.18816513 243.69190415 26.26953125 235.68457031 C22.43097693 230.51232474 18.3813829 225.56827245 14.2265625 220.6484375 C11.03352846 216.85040754 7.98644759 212.96185991 5 209 C4.54882812 208.40155273 4.09765625 207.80310547 3.6328125 207.18652344 C2.10273327 205.15005141 0.58141284 203.10731131 -0.9375 201.0625 C-1.43499756 200.39887451 -1.93249512 199.73524902 -2.44506836 199.05151367 C-6 194.23091934 -6 194.23091934 -6 192 C-6.556875 192.40992188 -7.11375 192.81984375 -7.6875 193.2421875 C-14.5996004 198.12269083 -19.80222277 200.10862368 -28.25390625 200.0390625 C-29.14537354 200.03342285 -30.03684082 200.0277832 -30.95532227 200.02197266 C-34.66485756 199.98210899 -33.04718593 194.80883587 -33.0703125 191.734375 C-33.08525625 189.0167695 -33.09810276 186.2991641 -33.10986328 183.58154297 C-33.11976314 181.72963094 -33.13328645 179.87773383 -33.15087891 178.02587891 C-33.2430679 168.05319943 -33.10265172 158.18203965 -32.12890625 148.25 C-32.0142955 147.06793976 -32.0142955 147.06793976 -31.89736938 145.86199951 C-29.30971118 122.12158244 -19.30923034 101.53086279 -4.48828125 83.1015625 C-3.66714844 82.07804687 -2.84601563 81.05453125 -2 80 C-1.38898438 79.30519531 -0.77796875 78.61039062 -0.1484375 77.89453125 C1.39521379 75.34803167 1.11317418 73.99062236 0.6875 71.0625 C-0.01455348 64.93479407 -0.09304677 58.90853913 -0.0625 52.75 C-0.05839111 51.79617432 -0.05428223 50.84234863 -0.05004883 49.85961914 C-0.03737897 47.57302205 -0.020886 45.28653466 0 43 C3.35922253 44.58908276 5.62078993 46.3513143 8.25 49 C9.30960938 50.051875 9.30960938 50.051875 10.390625 51.125 C12 53 12 53 12 55 C13.84971696 56.05021103 13.84971696 56.05021103 16 57 C16.99 57.66 17.98 58.32 19 59 C19.25007813 58.41089844 19.50015625 57.82179687 19.7578125 57.21484375 C21.16438247 54.70690295 22.65554334 53.37575422 24.875 51.5625 C27.98775695 48.93646504 30.59200564 46.31099224 33 43 C32.15179688 42.73445313 31.30359375 42.46890625 30.4296875 42.1953125 C24.80267181 40.23418858 19.49401393 37.58737766 14.12890625 35.01171875 C11.92848392 33.96601346 9.71524104 32.95138407 7.5 31.9375 C6.04118689 31.25101863 4.58284078 30.56354384 3.125 29.875 C2.42906738 29.56288574 1.73313477 29.25077148 1.01611328 28.92919922 C-3.10630838 26.94402301 -4.88550023 25.72720494 -5 21 C-0.54399732 19.328999 1.84269394 20.61054807 5.7421875 22.796875 C8.07468906 24.03979971 10.46396533 25.05765609 12.89892578 26.08105469 C15.37994232 27.1661751 17.81175029 28.33757959 20.25 29.515625 C21.65765625 30.18464844 21.65765625 30.18464844 23.09375 30.8671875 C25.03735383 31.79196674 26.97489783 32.72958683 28.90625 33.6796875 C38.16519324 38.02935589 43.06641739 37.31448412 51 31 C49.77821045 30.47212891 49.77821045 30.47212891 48.53173828 29.93359375 C15.56071634 15.6828939 15.56071634 15.6828939 3 10 C2.29762207 9.68305176 1.59524414 9.36610352 0.87158203 9.03955078 C-1.21360757 8.09526928 -3.29496514 7.14307536 -5.375 6.1875 C-6.55835938 5.64480469 -7.74171875 5.10210937 -8.9609375 4.54296875 C-16.94532046 0.48920105 -16.94532046 0.48920105 -15 -4 C-11.89014943 -7.10985057 -3.32065754 -1.5401734 0 0 Z " fill="#FCB601" transform="translate(173,117)"/>
<path d="M0 0 C0.05607422 1.46759766 0.05607422 1.46759766 0.11328125 2.96484375 C1.95814902 39.75367754 28.70278615 56.20433064 62.99316406 55.20996094 C68.13929095 54.85061788 72.67982338 53.56214945 77.5234375 51.77734375 C80 51 80 51 83 52 C81.46508435 54.42355103 80.54642766 55.79704116 77.8125 56.8125 C70.27037309 59.99695358 65.97714293 66.02887457 62.2265625 73.05859375 C61 75 61 75 59 75 C58.7834375 76.2065625 58.7834375 76.2065625 58.5625 77.4375 C58 80 58 80 55 81 C54.63557767 82.66014616 54.30027117 84.32706064 54 86 C53.34 86 52.68 86 52 86 C51.835 86.66 51.67 87.32 51.5 88 C51 90 51 90 49 90 C48.71827518 91.49436646 48.47646583 92.9962669 48.25 94.5 C48.11078125 95.3353125 47.9715625 96.170625 47.828125 97.03125 C48.00454593 100.07852055 48.51044808 101.17486451 49.95703125 103.765625 C52.39935794 108.30948862 52.58086766 112.16277727 52.4375 117.25 C52.42356201 118.08120361 52.40962402 118.91240723 52.39526367 119.76879883 C52.0858285 130.1575554 50.06669099 138.47383968 44 147 C35.61880391 143.28119114 29.94609789 134.65290142 24.36474609 127.68554688 C22.83958041 125.80187177 21.29104695 123.93911087 19.73828125 122.078125 C13.36418439 114.42885357 7.18816513 106.69190415 1.26953125 98.68457031 C-2.56902307 93.51232474 -6.6186171 88.56827245 -10.7734375 83.6484375 C-13.9665498 79.85031445 -17.01155599 75.96044296 -20 72 C-20.44585449 71.4121875 -20.89170898 70.824375 -21.35107422 70.21875 C-22.86695779 68.21414437 -24.37212812 66.20187479 -25.875 64.1875 C-26.60867798 63.21719849 -26.60867798 63.21719849 -27.35717773 62.22729492 C-27.81423096 61.60959229 -28.27128418 60.99188965 -28.7421875 60.35546875 C-29.35876221 59.53018677 -29.35876221 59.53018677 -29.98779297 58.68823242 C-32.40543649 54.65591092 -32.23010539 52.66601644 -29.67578125 48.75390625 C-28.88276611 47.51265991 -28.88276611 47.51265991 -28.07373047 46.24633789 C-27.49252441 45.36067139 -26.91131836 44.47500488 -26.3125 43.5625 C-25.11017814 41.67906066 -23.91104658 39.79358156 -22.71484375 37.90625 C-22.09851074 36.93558594 -21.48217773 35.96492188 -20.84716797 34.96484375 C-17.89983569 30.2341534 -15.12783752 25.40823351 -12.375 20.5625 C-11.87911377 19.69375244 -11.38322754 18.82500488 -10.87231445 17.92993164 C-6.26040095 10.38501349 -6.26040095 10.38501349 -3.5 2.125 C-3 0 -3 0 0 0 Z " fill="#FBD001" transform="translate(198,254)"/>
<path d="M0 0 C3.35922253 1.58908276 5.62078993 3.3513143 8.25 6 C8.95640625 6.70125 9.6628125 7.4025 10.390625 8.125 C12 10 12 10 12 12 C12.56203125 12.268125 13.1240625 12.53625 13.703125 12.8125 C16.73382483 14.37939243 18.48159563 16.45707536 20.75 19 C21.18900635 19.49056885 21.6280127 19.9811377 22.08032227 20.48657227 C25.49212115 24.33420973 28.68014426 28.33372993 31.8515625 32.37890625 C34.83441499 36.01798628 38.01598876 39.45738259 41.23217773 42.89038086 C42.50058607 44.24871795 43.75095781 45.62383397 45 47 C45.64324219 47.69351563 46.28648437 48.38703125 46.94921875 49.1015625 C49.19644772 53.16161187 45.52647719 55.56606756 42.4375 57.875 C35.17942662 64.0470113 29.35241552 72.721641 27.5625 82.125 C26.01095163 88.81910176 22.16252091 89.24444012 16 91 C12.8796579 92.10252568 9.78594104 93.2750887 6.6875 94.4375 C5.0238068 95.04788252 3.3597474 95.65726791 1.6953125 96.265625 C-2.19942155 97.69698283 -6.07204944 99.17857713 -9.9375 100.6875 C-26.26221026 107 -26.26221026 107 -31 107 C-31 109.64 -31 112.28 -31 115 C-30.20078125 114.68546875 -29.4015625 114.3709375 -28.578125 114.046875 C-23.02613956 111.88342527 -17.47780488 109.78664372 -11.8125 107.9375 C-7.34787657 106.47656301 -2.99717659 104.85139725 1.3515625 103.078125 C4.49584686 101.79815084 7.65076889 100.54877239 10.8125 99.3125 C11.87082031 98.89613281 12.92914063 98.47976563 14.01953125 98.05078125 C16.6877419 97.11008837 19.21531339 96.46840385 22 96 C21.39053141 100.61076239 19.49218986 104.33514845 17.3125 108.375 C16.92529785 109.09888916 16.5380957 109.82277832 16.13916016 110.56860352 C12.57069463 117.13598163 8.75074355 123.54777461 4.875 129.9375 C4.30177002 130.88351074 3.72854004 131.82952148 3.13793945 132.80419922 C-11.828295 157.20962084 -11.828295 157.20962084 -28.265625 157.046875 C-29.15540039 157.04010742 -30.04517578 157.03333984 -30.96191406 157.02636719 C-34.58752643 156.9794618 -33.08099919 146.89311476 -33.09765625 143.40234375 C-33.10168457 142.47147949 -33.10571289 141.54061523 -33.10986328 140.58154297 C-33.11976314 138.72963094 -33.13328645 136.87773383 -33.15087891 135.02587891 C-33.2430679 125.05319943 -33.10265172 115.18203965 -32.12890625 105.25 C-32.0142955 104.06793976 -32.0142955 104.06793976 -31.89736938 102.86199951 C-29.30971118 79.12158244 -19.30923034 58.53086279 -4.48828125 40.1015625 C-3.66714844 39.07804687 -2.84601563 38.05453125 -2 37 C-1.38898438 36.30519531 -0.77796875 35.61039063 -0.1484375 34.89453125 C1.39521379 32.34803167 1.11317418 30.99062236 0.6875 28.0625 C-0.01455348 21.93479407 -0.09304677 15.90853913 -0.0625 9.75 C-0.05839111 8.79617432 -0.05428223 7.84234863 -0.05004883 6.85961914 C-0.03737897 4.57302205 -0.020886 2.28653466 0 0 Z " fill="#F6D19D" transform="translate(173,160)"/>
<path d="M0 0 C6.04994703 11.63342618 6.04994703 11.63342618 2.34375 13.9375 C1.52390625 14.25589844 0.7040625 14.57429688 -0.140625 14.90234375 C-17.17287162 22.78943523 -28.79594236 41.23023888 -29.890625 59.83984375 C-35.44379981 61.04705567 -35.44379981 61.04705567 -36.55859375 58.03515625 C-36.83847965 56.3004179 -37.10249796 54.56308592 -37.35546875 52.82421875 C-39.12474051 42.95762296 -44.17618095 35.08537377 -50.890625 27.83984375 C-51.46167969 27.21464844 -52.03273438 26.58945313 -52.62109375 25.9453125 C-56.83939975 21.82012584 -61.67439704 19.17744669 -66.890625 16.52734375 C-67.55513672 16.18944824 -68.21964844 15.85155273 -68.90429688 15.50341797 C-84.66947737 7.84947709 -105.82008872 8.92581284 -121.2890625 17.16796875 C-122.890625 17.83984375 -122.890625 17.83984375 -124.890625 16.83984375 C-117.44680474 10.50025512 -109.89922898 4.46054083 -101.890625 -1.16015625 C-101.17874023 -1.6603125 -100.46685547 -2.16046875 -99.73339844 -2.67578125 C-95.50714794 -5.64230066 -91.27621997 -8.60207498 -87.04296875 -11.55859375 C-82.29740345 -14.87383057 -77.55996254 -18.20036293 -72.828125 -21.53515625 C-72.13219238 -22.02298584 -71.43625977 -22.51081543 -70.71923828 -23.01342773 C-67.62122745 -25.19258743 -64.55657943 -27.39326154 -61.56640625 -29.71875 C-60.60089844 -30.46253906 -59.63539063 -31.20632812 -58.640625 -31.97265625 C-57.83109375 -32.61847656 -57.0215625 -33.26429688 -56.1875 -33.9296875 C-40.121207 -42.53663018 -6.99479278 -11.69170942 0 0 Z " fill="#FAF6AC" transform="translate(348.890625,192.16015625)"/>
<path d="M0 0 C2.91477345 14.47123436 2.91477345 14.47123436 0.1171875 20.06640625 C-3.80988857 19.81444783 -5.88564922 17.49046115 -8.6328125 14.87890625 C-15.38326474 7.7140972 -15.38326474 7.7140972 -23.8828125 4.06640625 C-25.27184517 5.68694437 -26.59614078 7.36345838 -27.8828125 9.06640625 C-31.66059028 14.06640625 -31.66059028 14.06640625 -33.8828125 14.06640625 C-34.55653062 15.39619049 -35.22175784 16.73028164 -35.8828125 18.06640625 C-37.06545247 19.36051343 -38.29987882 20.60837108 -39.5703125 21.81640625 C-42.95774658 25.1121228 -46.07889079 28.53422645 -49.15234375 32.12109375 C-51.41042692 34.65952585 -53.83211942 36.99998262 -56.3046875 39.328125 C-58.18839607 41.40300201 -59.50631061 43.6326514 -60.8828125 46.06640625 C-58.51069594 47.67497893 -56.13531193 49.27832377 -53.7578125 50.87890625 C-52.76007813 51.55663086 -52.76007813 51.55663086 -51.7421875 52.24804688 C-48.66919383 54.31177302 -45.72983713 56.14084057 -42.390625 57.765625 C-39.8828125 59.06640625 -39.8828125 59.06640625 -39.8828125 61.06640625 C-41.54947917 61.73307292 -43.21614583 62.39973958 -44.8828125 63.06640625 C-44.8828125 63.72640625 -44.8828125 64.38640625 -44.8828125 65.06640625 C-73.54431793 65.57170213 -103.13955603 55.95524404 -105.00292969 21.86914062 C-105.12814892 16.93016581 -105.04075669 12.00362469 -104.8828125 7.06640625 C-94.36433802 8.97671215 -84.74897794 21.33022981 -78.5078125 29.31640625 C-74.48915306 33.52643043 -73.2196974 31.2131477 -69.21875 27.78125 C-68.22763331 26.85989963 -67.2408548 25.9338668 -66.2578125 25.00390625 C-65.18794647 24.00603152 -64.11762712 23.00864261 -63.046875 22.01171875 C-62.51481445 21.51446289 -61.98275391 21.01720703 -61.43457031 20.50488281 C-59.19639816 18.43010145 -56.91416224 16.4059879 -54.6328125 14.37890625 C-50.87707549 11.01376589 -47.30235348 7.51861066 -43.7734375 3.91796875 C-41.38498898 1.57886834 -38.84606037 -0.53000946 -36.23046875 -2.609375 C-34.60645859 -4.00425223 -34.60645859 -4.00425223 -33.8828125 -6.93359375 C-34.66785156 -7.26810547 -34.66785156 -7.26810547 -35.46875 -7.609375 C-38.76856998 -9.41947042 -41.58966565 -11.76539075 -44.5078125 -14.12109375 C-51.68811276 -19.84059692 -58.96842662 -25.26007238 -66.8828125 -29.93359375 C-45.93504073 -50.88136552 -6.38103063 -21.20422126 0 0 Z " fill="#5F5460" transform="translate(306.8828125,240.93359375)"/>
<path d="M0 0 C0.11988281 0.84433594 0.23976563 1.68867188 0.36328125 2.55859375 C0.48591185 4.55594286 0.48591185 4.55594286 1.6875 5.5625 C2.83453095 25.51550355 -1.47956361 41.82946499 -14.3125 57.5625 C-16.31919014 57.5625 -16.22790448 53.73208628 -16.5625 52.1875 C-20.67664084 35.31356005 -30.70699349 23.65205295 -47.875 19.25 C-51.87219215 18.12258683 -55.5701397 16.34328497 -59.3125 14.5625 C-58.88324219 15.16835938 -58.45398438 15.77421875 -58.01171875 16.3984375 C-55.64545458 20.80458457 -54.45082296 25.38180097 -53.125 30.1875 C-52.85236328 31.14140625 -52.57972656 32.0953125 -52.29882812 33.078125 C-50.3125 40.14726269 -50.3125 40.14726269 -50.3125 43.5625 C-56.54586535 43.6619686 -62.77315825 43.63393361 -69 43.3125 C-69.99386719 43.26609375 -70.98773438 43.2196875 -72.01171875 43.171875 C-75.12587656 42.34707259 -75.05449565 41.67799312 -75.3125 38.5625 C-74.28027344 35.95629883 -74.28027344 35.95629883 -72.671875 33.01953125 C-72.09566406 31.94509766 -71.51945312 30.87066406 -70.92578125 29.76367188 C-70.31089844 28.64541016 -69.69601562 27.52714844 -69.0625 26.375 C-64.17296447 17.63025847 -64.17296447 17.63025847 -60.74609375 8.265625 C-58.95014583 3.62650068 -58.33614491 3.55777102 -53.625 4.5 C-52.13419922 4.76103516 -52.13419922 4.76103516 -50.61328125 5.02734375 C-49.47439453 5.29224609 -49.47439453 5.29224609 -48.3125 5.5625 C-48.48652344 4.2940625 -48.48652344 4.2940625 -48.6640625 3 C-49.46102623 -7.01897266 -46.77000574 -10.42473018 -38.3125 -15.4375 C-37.06533203 -16.25347656 -37.06533203 -16.25347656 -35.79296875 -17.0859375 C-21.06867956 -25.10893602 -3.17554997 -16.01482395 0 0 Z " fill="#FB8C20" transform="translate(349.3125,295.4375)"/>
<path d="M0 0 C1.20770451 1.06061229 2.41602667 2.12052174 3.625 3.1796875 C4.19605469 3.68209961 4.76710938 4.18451172 5.35546875 4.70214844 C7.51970474 6.57464953 9.74815494 8.35934876 12 10.125 C11.29061279 10.83293701 10.58122559 11.54087402 9.8503418 12.27026367 C7.51693618 14.60356686 5.19569017 16.94863656 2.87837219 19.29792786 C0.75310541 21.45042567 -1.37790621 23.59720245 -3.5090332 25.74389648 C-4.62089138 26.8657816 -5.73094405 27.98945921 -6.83911133 29.11499023 C-12.21990959 34.57752214 -17.64296557 40.00317828 -23.42578125 45.04296875 C-24.16868408 45.69418701 -24.91158691 46.34540527 -25.67700195 47.01635742 C-30.82121411 49.47141443 -35.89552386 45.11652475 -40.125 42.25 C-41.13820312 41.57195312 -42.15140625 40.89390625 -43.1953125 40.1953125 C-45.72221664 38.330049 -47.85668318 36.41188828 -50 34.125 C-45.03444495 28.67424519 -40.05718515 23.2370869 -35 17.87109375 C-34.32654541 17.15630859 -33.65309082 16.44152344 -32.95922852 15.70507812 C-31.62568381 14.29182027 -30.2902733 12.88032035 -28.95288086 11.47070312 C-28.33807861 10.81908203 -27.72327637 10.16746094 -27.08984375 9.49609375 C-26.54191162 8.91786865 -25.99397949 8.33964355 -25.42944336 7.74389648 C-23.80191832 5.97403337 -23.80191832 5.97403337 -22 3.125 C-21.34 3.125 -20.68 3.125 -20 3.125 C-19.29168982 1.81331448 -18.63258816 0.47483497 -18 -0.875 C-16.66796875 -2.8671875 -16.66796875 -2.8671875 -15.1875 -4.75 C-14.46626953 -5.70519531 -14.46626953 -5.70519531 -13.73046875 -6.6796875 C-9.08329916 -9.88969629 -3.37723916 -3.00920668 0 0 Z " fill="#3D101D" transform="translate(295,251.875)"/>
<path d="M0 0 C10.57180177 1.91999091 19.92444869 14.27103166 26.5 22.0625 C28.66652446 24.99630143 28.66652446 24.99630143 31 26 C31.268125 26.763125 31.53625 27.52625 31.8125 28.3125 C33.29910489 31.67692159 35.09899998 32.74366665 38 35 C38.99721438 36.1512784 39.97419889 37.3201994 40.9375 38.5 C44.90506789 43.19215713 49.54357727 47.00083965 54.28881836 50.875 C58.8971188 54.6913564 58.8971188 54.6913564 60 58 C31.33849457 58.50529588 1.74325647 48.88883779 -0.12011719 14.80273438 C-0.24533642 9.86375956 -0.15794419 4.93721844 0 0 Z " fill="#633FF8" transform="translate(202,248)"/>
<path d="M0 0 C0.50253162 20.18502023 -2.88170153 35.9171143 -16 52 C-18.00669014 52 -17.91540448 48.16958628 -18.25 46.625 C-21.55340842 33.07623794 -27.57983281 24.64153742 -39.51171875 17.578125 C-41.69907849 16.19085132 -43.22517079 14.84992186 -45 13 C-38.69999494 9.99028486 -32.41534901 7.78022217 -25.6875 5.9375 C-24.77049316 5.68145996 -23.85348633 5.42541992 -22.90869141 5.16162109 C-4.30911342 0 -4.30911342 0 0 0 Z " fill="#F9E30B" transform="translate(351,301)"/>
<path d="M0 0 C0.96969727 0.57911133 1.93939453 1.15822266 2.93847656 1.75488281 C11.38920848 6.89530502 19.29361819 12.56019645 26.94384766 18.82324219 C28.48174085 20.08163589 30.04201135 21.31257517 31.60546875 22.5390625 C42.77432288 31.78583476 52.31992438 45.65717414 52.0625 60.4375 C52.05307373 61.27321533 52.04364746 62.10893066 52.03393555 62.9699707 C51.78149943 73.39226359 49.77315315 81.69719016 43.6875 90.25 C38.62619427 87.90047771 38.62619427 87.90047771 37.6875 84.25 C38.65731256 82.56558871 39.66687481 80.90411668 40.6875 79.25 C44.58030715 68.97924542 45.92917235 57.2312688 40.6875 47.25 C40.32011719 46.49589844 39.95273438 45.74179687 39.57421875 44.96484375 C30.07965102 27.29206429 11.11526846 15.53411718 -6.00634766 6.22119141 C-18.74081049 -0.74536649 -18.74081049 -0.74536649 -17.8359375 -4.98046875 C-13.45350174 -10.07083643 -4.40328695 -2.64988682 0 0 Z " fill="#1C0B0F" transform="translate(198.3125,310.75)"/>
<path d="M0 0 C4.43445547 8.61059314 6.49986088 16.39332847 7.234375 26 C2.99540209 24.67532097 -0.0316313 22.42582041 -3.4921875 19.75 C-5.88369765 17.90911246 -8.31730117 16.13955772 -10.765625 14.375 C-15.56469456 10.89147958 -20.32890896 7.36350933 -25.078125 3.8125 C-25.74779297 3.31347168 -26.41746094 2.81444336 -27.10742188 2.30029297 C-29.00335742 0.87928644 -30.88693639 -0.55629113 -32.765625 -2 C-33.3642334 -2.45197754 -33.9628418 -2.90395508 -34.57958984 -3.36962891 C-38.765625 -6.65050908 -38.765625 -6.65050908 -38.765625 -10 C-22.69758475 -24.21926405 -9.97010342 -16.94035272 0 0 Z " fill="#5F525D" transform="translate(377.765625,228)"/>
<path d="M0 0 C4.96217137 2.28040964 9.93701073 4.36033133 15.0625 6.25 C21.03834727 8.5111314 26.68370243 11.2231605 32.35571289 14.14550781 C36.5091829 16.28384425 40.69031101 18.19534969 45 20 C46.43897863 20.64253205 47.87669662 21.28790352 49.3125 21.9375 C52.49107614 23.35977814 55.6919801 24.6759186 58.9375 25.9375 C63.26371897 27.64257857 67.35671273 29.65775088 71.4921875 31.77734375 C74.79119404 33.38573791 78.17873005 34.69475528 81.59765625 36.0234375 C93.89655172 41.02298851 93.89655172 41.02298851 93 47 C87.85294973 49.42396155 83.40721529 46.16188683 78.8125 43.8125 C77.09610916 42.96530294 75.37867193 42.12022229 73.66015625 41.27734375 C72.84562988 40.87499512 72.03110352 40.47264648 71.19189453 40.05810547 C68.75057287 38.87959265 66.28327608 37.83944521 63.75 36.875 C59.90531982 35.40382136 56.21666079 33.70833054 52.5 31.9375 C45.4499712 28.57941347 38.2684202 25.5687456 31.0625 22.5625 C22.9205163 19.16031395 14.92554296 15.62855799 7.08813477 11.57324219 C3.61620715 9.78121901 0.15258009 8.19872015 -3.5 6.8125 C-16.21066338 1.91382328 -16.21066338 1.91382328 -15.76953125 -2.09375 C-13.24847603 -8.3388005 -4.31924632 -2.00333464 0 0 Z " fill="#270D24" transform="translate(173,117)"/>
<path d="M0 0 C-2.02734375 1.91796875 -2.02734375 1.91796875 -4.9375 4.1875 C-9.74913106 7.9997923 -14.41758682 11.91653152 -19 16 C-19.495 15.01 -19.495 15.01 -20 14 C-20.54398437 13.73574219 -21.08796875 13.47148437 -21.6484375 13.19921875 C-24.97399426 11.50329529 -27.73385034 9.14640925 -30.625 6.8125 C-37.80530026 1.09299683 -45.08561412 -4.32647863 -53 -9 C-42.23175586 -19.76824414 -6.6383314 -13.2766628 0 0 Z " fill="#5D545E" transform="translate(293,220)"/>
<path d="M0 0 C5.072354 4.92206203 5.072354 4.92206203 2.62109375 7.5625 C1.55983839 8.70828013 0.49864376 9.85411651 -0.5625 11 C-1.07619141 11.55300781 -1.58988281 12.10601562 -2.11914062 12.67578125 C-4.92407174 15.70719749 -7.6815619 18.76970552 -10.38671875 21.890625 C-14.89877092 27.0729571 -19.65094976 32.02289437 -24.390625 36.99609375 C-25.07125 37.71410156 -25.751875 38.43210937 -26.453125 39.171875 C-27.06317383 39.8122168 -27.67322266 40.45255859 -28.30175781 41.11230469 C-30.06582376 42.99831248 -30.06582376 42.99831248 -31.60058594 45.27050781 C-33.71322657 47.88145447 -34.4812647 46.83180749 -37 45 C-41 41.44444444 -41 41.44444444 -41 39 C-41.99 38.67 -42.98 38.34 -44 38 C-42.4276953 33.95557767 -39.54840027 31.4947387 -36.375 28.6875 C-35.63056641 28.01557617 -35.63056641 28.01557617 -34.87109375 27.33007812 C-31.98318865 24.7324332 -29.05703336 22.1804173 -26.125 19.6328125 C-21.86713772 15.91316601 -17.7384141 12.06553111 -13.625 8.1875 C-12.91472656 7.52041016 -12.20445312 6.85332031 -11.47265625 6.16601562 C-3.37587416 -1.44680321 -3.37587416 -1.44680321 0 0 Z " fill="#3F121E" transform="translate(278,238)"/>
<path d="M0 0 C9.28269072 1.68586984 16.82126385 11.49771516 23 18 C23.99 19.03447266 23.99 19.03447266 25 20.08984375 C29.12955766 24.61132702 29.12955766 24.61132702 28 28 C26.32675367 29.52216957 24.58675868 30.97187505 22.8125 32.375 C21.8225 33.16519531 20.8325 33.95539063 19.8125 34.76953125 C18.884375 35.50558594 17.95625 36.24164063 17 37 C15.7668154 38.01597595 14.53657741 39.03556968 13.3125 40.0625 C12.549375 40.701875 11.78625 41.34125 11 42 C10.59007812 41.31292969 10.18015625 40.62585938 9.7578125 39.91796875 C9.21898437 39.01691406 8.68015625 38.11585938 8.125 37.1875 C7.59132812 36.29417969 7.05765625 35.40085937 6.5078125 34.48046875 C5.38116908 32.62705276 4.20313389 30.80470083 3 29 C-0.50544472 19.44846715 -0.31984765 9.99820048 0 0 Z " fill="#4E27F9" transform="translate(202,248)"/>
<path d="M0 0 C0.97372559 0.44956055 1.94745117 0.89912109 2.95068359 1.36230469 C3.96727051 1.83442383 4.98385742 2.30654297 6.03125 2.79296875 C8.03347827 3.7117571 10.03608397 4.62972338 12.0390625 5.546875 C15.10835676 6.95576359 18.17740243 8.36518924 21.24609375 9.77539062 C32.40967744 14.96398335 32.40967744 14.96398335 43.78125 19.66796875 C47.89409819 21.31052133 51.97494415 23.01498447 56.03125 24.79296875 C57.124375 25.26734375 58.2175 25.74171875 59.34375 26.23046875 C62.13256348 27.85187193 63.22637791 28.6740894 64.03125 31.79296875 C59.73353982 36.09067893 55.07123329 33.54355407 50.3359375 30.98828125 C47.78355859 29.66450507 45.19227077 28.56939595 42.53125 27.48046875 C30.54541044 22.55044418 18.69201238 17.31389547 6.99902344 11.72412109 C4.86444184 10.71403496 2.71751666 9.73294029 0.5703125 8.75 C-0.90154154 8.05705034 -2.37290778 7.3630635 -3.84375 6.66796875 C-4.54048828 6.35545166 -5.23722656 6.04293457 -5.95507812 5.72094727 C-10.03928603 3.75426775 -11.98466579 2.51995853 -11.96875 -2.20703125 C-9.07572754 -5.10005371 -3.10209186 -1.44038012 0 0 Z " fill="#200A1D" transform="translate(179.96875,140.20703125)"/>
<path d="M0 0 C0.88816406 0.37898437 1.77632812 0.75796875 2.69140625 1.1484375 C9.25 4.07008449 9.25 4.07008449 9.25 7.5 C7.15912103 9.22331811 5.11339631 10.74118484 2.875 12.25 C1.58679158 13.13085559 0.29903396 14.01237081 -0.98828125 14.89453125 C-1.62717285 15.32975098 -2.26606445 15.7649707 -2.92431641 16.21337891 C-4.5725351 17.37493447 -6.15653516 18.62633418 -7.73046875 19.88671875 C-14.06003147 24.91398112 -14.06003147 24.91398112 -17.5625 22.8125 C-18.6453125 21.1728125 -18.6453125 21.1728125 -19.75 19.5 C-20.74741937 18.49742601 -21.74737189 17.49736497 -22.75 16.5 C-26.77802439 10.45796341 -20.34980126 7.07286269 -15.78515625 3.34375 C-13.55776151 1.52265319 -13.55776151 1.52265319 -12.10546875 -1.4375 C-8.07224446 -4.96907948 -4.41920972 -2.07578832 0 0 Z " fill="#FD9221" transform="translate(215.75,163.5)"/>
<path d="M0 0 C4.09979714 0.48181377 4.84476196 2.05707608 6.75 5.5625 C13.84448954 16.30426507 29.65453971 20.52166801 41.5 23.9375 C58 28.93924216 58 28.93924216 58 36 C56.53808594 37.3527832 56.53808594 37.3527832 54.484375 38.55078125 C53.732771 38.99897217 52.98116699 39.44716309 52.20678711 39.90893555 C51.39604736 40.37211182 50.58530762 40.83528809 49.75 41.3125 C48.93474854 41.79307861 48.11949707 42.27365723 47.27954102 42.76879883 C45.63365448 43.73674806 43.98400116 44.69832202 42.33056641 45.65332031 C40.26728637 46.84555294 38.21513599 48.05382511 36.16796875 49.2734375 C28.19068878 54 28.19068878 54 27 54 C26.33800297 49.0307236 27.78032604 47.84319279 31.8125 45.125 C33.30136719 44.10792969 33.30136719 44.10792969 34.8203125 43.0703125 C39.52360878 40.00796971 44.22758122 36.95391491 49 34 C46.28337967 31.7988528 43.9049131 30.43422299 40.5859375 29.3515625 C39.74683838 29.07078857 38.90773926 28.79001465 38.04321289 28.50073242 C37.16270264 28.21174072 36.28219238 27.92274902 35.375 27.625 C29.00879404 25.47403121 22.88485931 23.28086688 16.97265625 20.04296875 C14.92854162 18.90936311 14.92854162 18.90936311 12.3359375 17.99609375 C9.15734261 16.64067285 8.64383464 15.02465574 7 12 C5.46511857 9.962941 3.89316938 7.96032471 2.3046875 5.96484375 C0.96715152 3.95053059 0.43137128 2.36202078 0 0 Z " fill="#321328" transform="translate(367,194)"/>
<path d="M0 0 C3.54764031 4.52533646 4.68465359 10.17764562 6.1875 15.625 C6.46013672 16.57890625 6.73277344 17.5328125 7.01367188 18.515625 C9 25.58476269 9 25.58476269 9 29 C2.76663465 29.0994686 -3.46065825 29.07143361 -9.6875 28.75 C-10.68136719 28.70359375 -11.67523438 28.6571875 -12.69921875 28.609375 C-15.81875892 27.78314704 -15.7521338 27.12652391 -16 24 C-14.92016602 21.25097656 -14.92016602 21.25097656 -13.25390625 18.140625 C-12.66416016 17.02558594 -12.07441406 15.91054688 -11.46679688 14.76171875 C-10.83837891 13.60285156 -10.20996094 12.44398438 -9.5625 11.25 C-8.93053197 10.06439237 -8.29965929 8.87820018 -7.66992188 7.69140625 C-3.03530459 -1.0117682 -3.03530459 -1.0117682 0 0 Z " fill="#F6F085" transform="translate(290,310)"/>
<path d="M0 0 C0 4.20093889 -1.4296596 4.19052717 -4.9375 6.25 C-8.5260313 8.43868491 -11.96005161 10.63313857 -15.25 13.25 C-24.8530109 20.88096402 -34.65912507 27.92236891 -45.1875 34.21875 C-48.2556605 36.16191832 -50.90151108 38.30418555 -53.5703125 40.75390625 C-55.53653694 42.46763738 -57.75810262 43.68123684 -60 45 C-60.33 45.66 -60.66 46.32 -61 47 C-63.11154926 47.97389823 -65.26545958 48.85722387 -67.4375 49.6875 C-69.19900391 50.37392578 -69.19900391 50.37392578 -70.99609375 51.07421875 C-74 52 -74 52 -76 51 C-68.55617974 44.66041137 -61.00860398 38.62069708 -53 33 C-52.28811523 32.49984375 -51.57623047 31.9996875 -50.84277344 31.484375 C-46.61652294 28.51785559 -42.38559497 25.55808127 -38.15234375 22.6015625 C-33.40677845 19.28632568 -28.66933754 15.95979332 -23.9375 12.625 C-23.24156738 12.13717041 -22.54563477 11.64934082 -21.82861328 11.14672852 C-18.73060245 8.96756882 -15.66595443 6.76689471 -12.67578125 4.44140625 C-11.71027344 3.69761719 -10.74476563 2.95382813 -9.75 2.1875 C-8.94046875 1.54167969 -8.1309375 0.89585937 -7.296875 0.23046875 C-4.40361239 -1.31949336 -3.01973007 -1.21538781 0 0 Z " fill="#FCFAD1" transform="translate(300,158)"/>
<path d="M0 0 C1.2991333 0.02199463 1.2991333 0.02199463 2.62451172 0.04443359 C13.16735162 0.35411102 33.17722348 3.77501411 34.375 17.25 C34.125 19.4375 34.125 19.4375 30.125 19.4375 C28.1171875 18.046875 28.1171875 18.046875 26 16.1875 C17.40541587 9.16977346 8.23964518 7.33932335 -2.5625 6.91992188 C-7.65951675 6.65298325 -7.65951675 6.65298325 -9.875 4.4375 C-9.50187524 -1.42383892 -4.69579737 -0.12308426 0 0 Z " fill="#250C16" transform="translate(277.875,192.5625)"/>
<path d="M0 0 C0.94875 0.825 1.8975 1.65 2.875 2.5 C6.75265014 5.84635656 10.7912687 8.96485729 14.86328125 12.0703125 C16.99614623 13.99651963 17.8180069 15.43618402 19 18 C-9.49759384 18.50240616 -9.49759384 18.50240616 -14 14 C-13.49210938 13.57589844 -12.98421875 13.15179688 -12.4609375 12.71484375 C-7.83373646 8.77219118 -3.84408054 4.70899866 0 0 Z " fill="#502EF9" transform="translate(243,288)"/>
<path d="M0 0 C3.59807406 1.92299303 7.35876075 3.49398182 11.09765625 5.12109375 C8.09765625 7.12109375 8.09765625 7.12109375 5.41015625 7.93359375 C2.20234584 9.58084775 2.65253782 10.7381937 3.09765625 14.12109375 C-1.33841999 12.76562601 -5.6119364 11.36893177 -9.71484375 9.18359375 C-14.8573869 6.48193315 -20.37480136 4.85305703 -25.90234375 3.12109375 C-25.3196875 2.84652344 -24.73703125 2.57195312 -24.13671875 2.2890625 C-21.97307249 1.15806559 -20.12918001 -0.14096027 -18.15234375 -1.56640625 C-11.62386429 -5.6527508 -6.34754636 -3.44508977 0 0 Z " fill="#F58810" transform="translate(236.90234375,152.87890625)"/>
<path d="M0 0 C0.680625 0.70125 1.36125 1.4025 2.0625 2.125 C4.63318953 4.70297194 7.35624533 7.05046782 10.15625 9.375 C12 11 12 11 14.23828125 13.390625 C17.47168198 16.44566275 20.85148999 18.53992246 24.6875 20.75 C25.36361328 21.14832031 26.03972656 21.54664063 26.73632812 21.95703125 C29.13054916 23.36259384 31.5160462 24.7580231 34 26 C34 29.85076354 30.08620175 28.88727595 27 29 C24.18275648 27.51696747 22.00011427 25.48104163 19.6875 23.3125 C19.06810547 22.76916016 18.44871094 22.22582031 17.81054688 21.66601562 C13.3118102 17.6264334 13.3118102 17.6264334 11.94458008 14.87963867 C10.73438623 12.47144987 9.38222573 12.11170534 7 11 C7 10.34 7 9.68 7 9 C5.67592331 8.31513275 4.34090759 7.65129797 3 7 C-0.10953778 4.55679174 0 4.28830879 0 0 Z " fill="#7F5E1A" transform="translate(233,274)"/>
<path d="M0 0 C-4.13130366 4.24749657 -8.38185913 8.27307437 -12.86328125 12.1484375 C-20.40415252 18.68294021 -27.68062493 25.49347284 -34.95043945 32.32543945 C-39.17932216 36.29787446 -43.41741784 40.25935006 -47.6875 44.1875 C-48.59886719 45.02667969 -49.51023438 45.86585938 -50.44921875 46.73046875 C-57.67713499 53.16143251 -57.67713499 53.16143251 -60 52 C-45.32110092 38.21272936 -45.32110092 38.21272936 -40.625 34.1875 C-36.96186776 31.03974351 -33.60809322 27.62135246 -30.21484375 24.1875 C-27.60365973 21.60855282 -24.8807891 19.20278507 -22.09765625 16.8125 C-19.70082688 14.74149659 -17.34999818 12.62396782 -15 10.5 C-14.1646875 9.74976563 -13.329375 8.99953125 -12.46875 8.2265625 C-10.85622844 6.77223134 -9.25165362 5.30902684 -7.65625 3.8359375 C-6.9446875 3.18882812 -6.233125 2.54171875 -5.5 1.875 C-4.8709375 1.29492188 -4.241875 0.71484375 -3.59375 0.1171875 C-2 -1 -2 -1 0 0 Z " fill="#998685" transform="translate(293,221)"/>
<path d="M0 0 C0.33 3.96 0.66 7.92 1 12 C-9 13 -9 13 -9.6875 11 C-10.4844029 3.3497322 -8.18720721 -1.23580486 0 0 Z " fill="#EAE48C" transform="translate(320,256)"/>
<path d="M0 0 C-0.85464844 0.91523438 -1.70929688 1.83046875 -2.58984375 2.7734375 C-3.70584921 3.97384674 -4.82172808 5.17437368 -5.9375 6.375 C-6.50146484 6.97828125 -7.06542969 7.5815625 -7.64648438 8.203125 C-8.18466797 8.78320312 -8.72285156 9.36328125 -9.27734375 9.9609375 C-9.77484131 10.49509277 -10.27233887 11.02924805 -10.78491211 11.57958984 C-12.10293508 13.0045475 -12.10293508 13.0045475 -13 15 C-13.66 15 -14.32 15 -15 15 C-15.67371812 16.32978424 -16.33894534 17.66387539 -17 19 C-18.18263997 20.29410718 -19.41706632 21.54196483 -20.6875 22.75 C-23.44231937 25.4302304 -26.05924859 28.14581567 -28.5625 31.0625 C-31.8647084 34.8999979 -35.38174061 38.4623454 -39 42 C-40.2065625 43.2065625 -40.2065625 43.2065625 -41.4375 44.4375 C-41.953125 44.953125 -42.46875 45.46875 -43 46 C-41.64827153 41.91620659 -39.93063758 39.62316481 -36.8125 36.6875 C-33.26750135 33.32875347 -30.05046991 29.80400378 -26.8581543 26.11645508 C-23.22054498 21.97318413 -19.39661697 18.00220183 -15.60546875 14 C-11.76691243 9.93097136 -8.02723581 5.79529378 -4.36523438 1.56640625 C-2.08944855 -1.04472427 -2.08944855 -1.04472427 0 0 Z " fill="#8D787A" transform="translate(288,240)"/>
<path d="M0 0 C1.74183713 3.48367426 2.72166981 6.84043594 -0.90234375 9.28125 C-4.39867663 10.86791646 -7.12914665 12 -11 12 C-10.65604022 6.49664353 -6.49922132 -2.97029402 0 0 Z " fill="#260E16" transform="translate(178,194)"/>
<path d="M0 0 C14 4.96774194 14 4.96774194 14 9 C7.57638813 10.83531768 3.90055809 9.27583085 0 4 C0 2.68 0 1.36 0 0 Z " fill="#6D520B" transform="translate(253,293)"/>
<path d="M0 0 C9.19148936 2.04255319 9.19148936 2.04255319 8.625 4.875 C7.5917135 8.38817411 6.6513755 9 3 9 C1.55258453 6.10516906 0.70045743 3.15205842 0 0 Z " fill="#3D1821" transform="translate(290,310)"/>
<path d="M0 0 C3.72804087 0.52800579 4.91724852 1.71247838 6.875 4.875 C7.32617188 5.57367188 7.77734375 6.27234375 8.2421875 6.9921875 C9 9 9 9 7 12 C6.01287122 10.75627811 5.03560095 9.50472782 4.0625 8.25 C3.51722656 7.55390625 2.97195313 6.8578125 2.41015625 6.140625 C1.02574346 4.03907872 0.43713013 2.45678201 0 0 Z " fill="#482930" transform="translate(367,194)"/>
<path d="M0 0 C-5.66666667 5.66666667 -11.33333333 11.33333333 -17 17 C-15.62752311 12.79354381 -13.76328131 10.45958416 -10.5625 7.4375 C-7.22740796 4.26783532 -7.22740796 4.26783532 -4.40234375 0.66015625 C-3 -1 -3 -1 0 0 Z " fill="#856D73" transform="translate(262,269)"/>
<path d="M0 0 C0 3.2242064 -2.05392294 2.31138125 -4.9375 2.6875 C-5.85402344 2.81511719 -6.77054687 2.94273437 -7.71484375 3.07421875 C-10 3 -10 3 -11 0 C-6.61378891 -1.83608836 -4.21353688 -2.47855111 0 0 Z " fill="#371D56" transform="translate(272,303)"/>
<path d="M0 0 C-2.30527683 3.45791525 -3.28260484 3.53033215 -7 5 C-8.70294787 6.28667172 -10.37946188 7.61096733 -12 9 C-9.75165713 3.48134023 -6.32636273 -0.9037661 0 0 Z " fill="#F8F349" transform="translate(280,307)"/>
<path d="M0 0 C3.59634744 3.49359465 6.83451967 7.11098131 10 11 C9.01 11 8.02 11 7 11 C7 10.34 7 9.68 7 9 C5.67592331 8.31513275 4.34090759 7.65129797 3 7 C-0.10953778 4.55679174 0 4.28830879 0 0 Z " fill="#854B22" transform="translate(233,274)"/>
<path d="M0 0 C0 2.97 0 5.94 0 9 C-0.66 8.01 -1.32 7.02 -2 6 C-2.99 6.495 -2.99 6.495 -4 7 C-4.14893617 0 -4.14893617 0 0 0 Z " fill="#D7A21F" transform="translate(198,254)"/>
<path d="M0 0 C6.71428571 5 6.71428571 5 7 10 C0 3 0 3 0 0 Z " fill="#F6DFB8" transform="translate(210,200)"/>
<path d="M0 0 C-3.33562767 4.51290803 -5.33289301 6.68206814 -11 8 C-9.33333333 6.33333333 -7.66666667 4.66666667 -6 3 C-5.278125 2.21625 -4.55625 1.4325 -3.8125 0.625 C-2 -1 -2 -1 0 0 Z " fill="#FAF39A" transform="translate(235,202)"/>
<path d="M0 0 C4.77777778 0 4.77777778 0 7 3 C7 3.99 7 4.98 7 6 C3 4.25 3 4.25 3 2 C2.01 1.67 1.02 1.34 0 1 C0 0.67 0 0.34 0 0 Z " fill="#94731F" transform="translate(241,285)"/>
</svg>